<svg xmlns="http://www.w3.org/2000/svg" viewBox="0 0 1600 900" preserveAspectRatio="xMidYMid slice">
  <defs>
    <linearGradient id="sky" x1="0" x2="0" y1="0" y2="1">
      <stop offset="0%" stop-color="#8cd4ff"/>
      <stop offset="100%" stop-color="#d2f0ff"/>
    </linearGradient>
    <linearGradient id="land" x1="0" x2="0" y1="0" y2="1">
      <stop offset="0%" stop-color="#79c65e"/>
      <stop offset="100%" stop-color="#2f7a3b"/>
    </linearGradient>
  </defs>
  <rect width="1600" height="900" fill="url(#sky)"/>
  <path d="M0 520 C280 430 500 620 830 560 C1100 510 1310 390 1600 520 L1600 900 L0 900 Z" fill="#5fa547"/>
  <path d="M0 620 C260 540 520 690 840 620 C1100 560 1340 500 1600 620 L1600 900 L0 900 Z" fill="url(#land)"/>
  <circle cx="1250" cy="170" r="80" fill="#fff8bf"/>
  <g fill="#2d6d33" opacity="0.85">
    <rect x="230" y="470" width="10" height="120"/>
    <circle cx="235" cy="455" r="35"/>
    <rect x="1310" y="500" width="10" height="130"/>
    <circle cx="1315" cy="482" r="40"/>
  </g>
</svg>
